<svg xmlns="http://www.w3.org/2000/svg" viewBox="0 0 1400 900"><defs><linearGradient id="b" x1="0" y1="0" x2="1" y2="1"><stop stop-color="#aab1ae"/><stop offset=".55" stop-color="#3c4543"/><stop offset="1" stop-color="#151816"/></linearGradient><radialGradient id="c"><stop stop-color="#d8ff3e" stop-opacity=".8"/><stop offset="1" stop-color="#d8ff3e" stop-opacity="0"/></radialGradient></defs><rect width="1400" height="900" fill="#111310"/><circle cx="1080" cy="210" r="420" fill="url(#c)" opacity=".45"/><path d="M84 650l101-190 314-111 349 6 257 130 200 64 43 164H111z" fill="url(#b)"/><path d="M410 449l131-75 273 4 165 82z" fill="#8badb0" opacity=".8"/><path d="M157 606h1168l-27 116H136z" fill="#222724"/><circle cx="380" cy="698" r="126" fill="#090b09"/><circle cx="1043" cy="698" r="126" fill="#090b09"/><circle cx="380" cy="698" r="57" fill="#727b76"/><circle cx="1043" cy="698" r="57" fill="#727b76"/><path d="M1199 518l103 25-3 38-133-11z" fill="#d8ff3e"/><text x="83" y="119" fill="#f4f2eb" font-family="Arial" font-size="28" font-weight="700" letter-spacing="5">GTA_Bratislava · ORIGINAL PLACEHOLDER</text></svg>
