<svg xmlns="http://www.w3.org/2000/svg" viewBox="0 0 1200 760" role="img" aria-label="BMW placeholder">
  <defs><linearGradient id="g" x1="0" y1="0" x2="1" y2="1"><stop stop-color="#697176"/><stop offset="1" stop-color="#171a1b"/></linearGradient><radialGradient id="l"><stop stop-color="#d8ff3e" stop-opacity=".7"/><stop offset="1" stop-color="#d8ff3e" stop-opacity="0"/></radialGradient></defs>
  <rect width="1200" height="760" fill="#d8d9d4"/><circle cx="930" cy="180" r="320" fill="url(#l)"/><path d="M125 507c23-82 57-138 122-157l178-51c61-18 138-17 199 9l214 91c58 25 112 68 135 116l-33 68H159z" fill="url(#g)"/><path d="M342 354l113-36c50-16 119-13 165 7l119 54H319z" fill="#b9d5dc" opacity=".75"/><path d="M155 500h845l-29 92H181z" fill="#272b2d"/><g fill="#111"><circle cx="330" cy="577" r="88"/><circle cx="825" cy="577" r="88"/></g><g fill="#bfc4c5"><circle cx="330" cy="577" r="42"/><circle cx="825" cy="577" r="42"/></g><path d="M913 453l67 18-2 30-92-9z" fill="#d8ff3e"/><text x="70" y="110" font-family="Arial" font-size="30" font-weight="700" fill="#171917">GTA_Bratislava · DEMO IMAGE</text>
</svg>
